<svg width="24" height="24" viewBox="0 0 24 24" fill="none" xmlns="http://www.w3.org/2000/svg">
<circle cx="12" cy="12" r="9" fill="white"/>
<path d="M12 1C5.92525 1 1 5.92525 1 12C1 18.0748 5.92525 23 12 23C18.0748 23 23 18.0748 23 12C23 5.92525 18.0748 1 12 1ZM14.75 8.33333H13.5125C13.0193 8.33333 12.9167 8.53592 12.9167 9.0465V10.1667H14.75L14.5584 12H12.9167V18.4167H10.1667V12H8.33333V10.1667H10.1667V8.051C10.1667 6.42942 11.0201 5.58333 12.9433 5.58333H14.75V8.33333Z" fill="#3993FD"/>
</svg>
