<svg width="58" height="57" viewBox="0 0 58 57" fill="none" xmlns="http://www.w3.org/2000/svg">
<path fill-rule="evenodd" clip-rule="evenodd" d="M51.4038 26.9673V22.7327C51.4038 21.7298 51.0708 20.7825 50.4046 19.8911C50.3491 19.8075 50.2936 19.7378 50.2381 19.6682L50.238 19.6681C50.1825 19.5985 50.1271 19.5289 50.0716 19.4453C50.0547 19.4284 50.0379 19.4065 50.0196 19.3825C49.9773 19.3272 49.9269 19.2613 49.8495 19.2224C49.0168 18.3309 47.9066 17.5509 46.5743 16.8265L46.2413 16.6594C45.9585 16.5017 45.6401 16.3618 45.3163 16.2196L45.3163 16.2196C45.0681 16.1106 44.8168 16.0002 44.5759 15.8793C49.2389 12.8705 51.7924 9.4717 51.0708 6.51862C49.9605 2.39545 42.3554 0.55674 32.8629 1.83827C32.8629 1.72683 32.8629 1.55967 32.8074 1.44824C32.4743 -0.000444559 29.4212 -0.446192 25.9795 0.445303C22.5378 1.3368 20.0952 3.17551 20.4283 4.62419L20.5948 4.9585C11.713 8.41304 5.88424 13.7063 6.93896 17.8852C7.04999 18.3309 7.27203 18.7767 7.54959 19.1667C6.49487 20.2811 5.93975 21.4512 5.93975 22.7327V26.9673H5.71771C2.55354 26.9673 0 28.9174 0 31.2576C0 33.6535 2.55354 35.5479 5.66219 35.5479H5.88424V47.416C5.88424 52.6535 16.0429 56.9438 28.644 56.9438C41.2452 56.9438 51.4038 52.7092 51.4038 47.416V35.6037C54.568 35.6037 57.066 33.6535 57.066 31.3133C57.066 28.9174 54.5125 26.9673 51.4038 26.9673ZM47.6291 22.7889C47.6291 22.7798 47.6286 22.7704 47.6277 22.7605C47.6286 22.7509 47.629 22.7416 47.629 22.7327C47.629 22.2869 46.5188 20.8383 43.2991 19.501C42.2999 19.0553 41.1897 18.721 39.9684 18.3867C37.4149 19.5567 34.5283 20.6154 31.3641 21.3955C22.8708 23.5685 15.0437 23.457 10.6027 21.5069C9.99211 22.0641 9.71455 22.5098 9.71455 22.7327C9.71455 22.7418 9.71501 22.7512 9.71593 22.7611C9.71504 22.7707 9.7146 22.78 9.7146 22.7889C9.7146 23.2347 10.8248 24.6276 14.0445 26.0206C17.8193 27.5807 23.1484 28.5279 28.6441 28.5279C29.8098 28.5279 30.9756 28.4722 32.0858 28.4165L35.5831 32.7625C36.3047 33.5426 37.637 33.3754 38.1366 32.4282L40.9122 26.8564C41.7449 26.5778 42.522 26.2992 43.2992 26.0206C46.5189 24.6833 47.6291 23.2347 47.6291 22.7889ZM34.5893 39.7217C34.5856 39.7788 34.5837 39.8364 34.5837 39.8944C34.5837 40.0116 34.5914 40.1271 34.6063 40.2402C34.7422 41.2777 35.4808 42.1219 36.4588 42.4081C36.6916 42.4765 36.938 42.5132 37.1928 42.5132C37.4364 42.5132 37.6722 42.4797 37.8959 42.417C38.9966 42.1097 39.8019 41.0981 39.8019 39.894C39.8019 38.4453 38.6361 37.2752 37.1928 37.2752C35.8072 37.2752 34.6774 38.3537 34.5893 39.7217Z" fill="white"/>
</svg>
