<svg id="Layer_1" data-name="Layer 1" xmlns="http://www.w3.org/2000/svg" viewBox="0 0 398 128.37"><path d="M172.86,46.52a9.39,9.39,0,0,0-3.57-2.73,12.57,12.57,0,0,0-5.14-1,11.85,11.85,0,0,0-5.34,1.09A9.33,9.33,0,0,0,155.26,47a12.66,12.66,0,0,0-1.89,4.57,26.92,26.92,0,0,0-.56,5.65V67.81a27,27,0,0,0,.56,5.66,12.78,12.78,0,0,0,1.89,4.58,9.27,9.27,0,0,0,3.55,3.07,13.74,13.74,0,0,0,10.68,0A9.52,9.52,0,0,0,173,78.25a11.43,11.43,0,0,0,1.91-4.18,21.17,21.17,0,0,0,.56-4.91v-2h-6.74v2a14.44,14.44,0,0,1-.26,2.8,7.69,7.69,0,0,1-.81,2.34,4.58,4.58,0,0,1-1.42,1.57,4.27,4.27,0,0,1-4.23,0,4.48,4.48,0,0,1-1.42-1.57A7.7,7.7,0,0,1,159.8,72a15.11,15.11,0,0,1-.25-2.8V55.87a18.42,18.42,0,0,1,.26-3.36,6.39,6.39,0,0,1,.79-2.24A3.28,3.28,0,0,1,162,49a6,6,0,0,1,4.41,0,3.28,3.28,0,0,1,1.35,1.24,6.32,6.32,0,0,1,.79,2.24,18.42,18.42,0,0,1,.26,3.36v.71h6.74v-.71a20.06,20.06,0,0,0-.63-5.19A11.28,11.28,0,0,0,172.86,46.52Z"/><path d="M196.23,61.43a7.36,7.36,0,0,0,.94-1.22,9.28,9.28,0,0,0,.81-1.64,11.29,11.29,0,0,0,.57-2.09,16,16,0,0,0-.38-6.89,7.86,7.86,0,0,0-2.12-3.45,9.85,9.85,0,0,0-4-2.19,20.51,20.51,0,0,0-6-.75h-7.36V81.84h6.74V64.56h2.76l5.57,17.28h6.55l-6.1-18.92A6.88,6.88,0,0,0,196.23,61.43ZM185.47,48.61h.62a11.26,11.26,0,0,1,2.56.26,4.55,4.55,0,0,1,1.82.83,3.79,3.79,0,0,1,1.13,1.55,8.41,8.41,0,0,1,0,5.25,3.76,3.76,0,0,1-1.13,1.56,4.55,4.55,0,0,1-1.82.83,11.79,11.79,0,0,1-2.56.26h-.62Z"/><path d="M209.25,43.2l-8.08,38.64h6.76l1.86-9.31h5.82l2,9.31h6.57L215.89,43.2Zm5.24,23.93h-3.64l1.82-10.93Z"/><path d="M246.2,46.79a9.33,9.33,0,0,0-3.53-2.89,12.3,12.3,0,0,0-5.41-1.07,14.28,14.28,0,0,0-3.87.48,10.22,10.22,0,0,0-3,1.37,8.54,8.54,0,0,0-2.16,2.12,11.41,11.41,0,0,0-1.39,2.69,15.65,15.65,0,0,0-.73,3.07,25.46,25.46,0,0,0-.21,3.31V69.16a25.61,25.61,0,0,0,.21,3.32,15.65,15.65,0,0,0,.73,3.07,11.61,11.61,0,0,0,1.39,2.69,8.71,8.71,0,0,0,2.16,2.12,10.22,10.22,0,0,0,3,1.37,14.28,14.28,0,0,0,3.87.48,15.08,15.08,0,0,0,2.49-.19c.39.44.78.86,1.17,1.24a11,11,0,0,0,1.69,1.35,8.07,8.07,0,0,0,1.85.89,7,7,0,0,0,2.11.32h.71v-5.4h-.71a2.79,2.79,0,0,1-1.4-.33,3.35,3.35,0,0,1-.45-.27,8.49,8.49,0,0,0,1.48-1.58,11.46,11.46,0,0,0,1.87-4.18,22.17,22.17,0,0,0,.53-4.9V55.87a22.14,22.14,0,0,0-.53-4.89A11.59,11.59,0,0,0,246.2,46.79Zm-8.94,1.82a5.1,5.1,0,0,1,2.21.41,3.36,3.36,0,0,1,1.37,1.12,5,5,0,0,1,.78,1.83,12,12,0,0,1,.25,2.57V70.49a11.92,11.92,0,0,1-.25,2.57,5,5,0,0,1-.78,1.84A3.44,3.44,0,0,1,239.47,76a6.16,6.16,0,0,1-4.42,0,3.51,3.51,0,0,1-1.37-1.12,5.13,5.13,0,0,1-.77-1.84,11.82,11.82,0,0,1-.26-2.57V54.54a12,12,0,0,1,.26-2.57,5.16,5.16,0,0,1,.77-1.83A3.43,3.43,0,0,1,235.05,49,5.1,5.1,0,0,1,237.26,48.61Z"/><path d="M267.79,67.85c0,.66,0,1.35,0,2.06a14.74,14.74,0,0,1-.17,2,10.19,10.19,0,0,1-.44,1.85,4.26,4.26,0,0,1-.77,1.39,3.43,3.43,0,0,1-1.26.93,5.61,5.61,0,0,1-3.9,0,3.51,3.51,0,0,1-1.26-.93,4.26,4.26,0,0,1-.77-1.39,12.18,12.18,0,0,1-.44-1.85,14.75,14.75,0,0,1-.16-2c0-.71,0-1.4,0-2.06V43.2h-6.73V67.84c0,1.12,0,2.26.15,3.38a19.43,19.43,0,0,0,.57,3.3,13.08,13.08,0,0,0,1.2,3A8.17,8.17,0,0,0,255.84,80a9.64,9.64,0,0,0,3.1,1.65,15.79,15.79,0,0,0,8.48,0A9.7,9.7,0,0,0,270.53,80a8.46,8.46,0,0,0,2.08-2.49,13.55,13.55,0,0,0,1.2-3,20.1,20.1,0,0,0,.57-3.3c.1-1.13.15-2.27.15-3.38V43.2h-6.74Z"/><polygon points="278.42 81.84 294.46 81.84 294.46 76.43 285.16 76.43 285.16 64.56 291.8 64.56 291.8 59.15 285.16 59.15 285.16 48.6 294.46 48.6 294.46 43.2 278.42 43.2 278.42 81.84"/><path d="M314.53,45.73a8,8,0,0,0-3.61-2,20.88,20.88,0,0,0-5.2-.56H297V81.84h8.65a15.75,15.75,0,0,0,5.3-.79,8.34,8.34,0,0,0,3.59-2.46,9.71,9.71,0,0,0,1.93-4,23.34,23.34,0,0,0,.56-5.4V54.54a20.82,20.82,0,0,0-.56-5.2A7.9,7.9,0,0,0,314.53,45.73Zm-6,30.25a6.61,6.61,0,0,1-2.76.45h-2V48.61h1.84a7.25,7.25,0,0,1,2.85.43,2.55,2.55,0,0,1,1.27,1.17,5.67,5.67,0,0,1,.51,2.21c.06,1,.09,2.15.09,3.45v12c0,1.63,0,3-.09,4.22a7.32,7.32,0,0,1-.52,2.63A2.44,2.44,0,0,1,308.48,76Z"/><path d="M349.15,46.28A7.88,7.88,0,0,0,346,44a11.89,11.89,0,0,0-4.53-.78h-10V81.84h6.73V64.56h3.28a13.46,13.46,0,0,0,3.9-.55,8.35,8.35,0,0,0,3.22-1.8,8.23,8.23,0,0,0,2.14-3.15,12.22,12.22,0,0,0,.75-4.52,18.36,18.36,0,0,0-.54-4.64A9.45,9.45,0,0,0,349.15,46.28Zm-11,2.33h.62a11.52,11.52,0,0,1,3.61.43,3.33,3.33,0,0,1,1.63,1.1,3.45,3.45,0,0,1,.6,1.74c.07.8.1,1.69.1,2.66a8.84,8.84,0,0,1-.26,2.32,2.54,2.54,0,0,1-.81,1.29,4,4,0,0,1-1.73.75,15.85,15.85,0,0,1-3.14.25h-.62Z"/><path d="M373.67,46.79a9.45,9.45,0,0,0-3.54-2.89,12.3,12.3,0,0,0-5.41-1.07,14.28,14.28,0,0,0-3.87.48,10.22,10.22,0,0,0-3,1.37,8.7,8.7,0,0,0-2.16,2.12,11.41,11.41,0,0,0-1.39,2.69,15.65,15.65,0,0,0-.73,3.07,25.46,25.46,0,0,0-.21,3.31V69.16a25.61,25.61,0,0,0,.21,3.32,15.65,15.65,0,0,0,.73,3.07,11.61,11.61,0,0,0,1.39,2.69,8.71,8.71,0,0,0,2.16,2.12,10.35,10.35,0,0,0,3,1.37,14.28,14.28,0,0,0,3.87.48,12.3,12.3,0,0,0,5.41-1.07,9.47,9.47,0,0,0,3.54-2.9,11.45,11.45,0,0,0,1.86-4.18,22.16,22.16,0,0,0,.54-4.9V55.87a22.14,22.14,0,0,0-.54-4.89A11.57,11.57,0,0,0,373.67,46.79ZM368.3,74.9A3.44,3.44,0,0,1,366.93,76a6.16,6.16,0,0,1-4.42,0,3.41,3.41,0,0,1-1.36-1.12,5,5,0,0,1-.78-1.84,11.85,11.85,0,0,1-.25-2.57V54.54a12,12,0,0,1,.25-2.57,5,5,0,0,1,.78-1.83A3.33,3.33,0,0,1,362.51,49a6.16,6.16,0,0,1,4.42,0,3.36,3.36,0,0,1,1.37,1.12,5,5,0,0,1,.78,1.83,12,12,0,0,1,.25,2.57V70.49a11.92,11.92,0,0,1-.25,2.57A5,5,0,0,1,368.3,74.9Z"/><polygon points="377.97 43.2 377.97 48.98 384.62 48.98 384.62 81.84 391.35 81.84 391.35 48.98 398 48.98 398 43.2 377.97 43.2"/><path d="M164.41,102.82a1.13,1.13,0,0,0-.21-.15l.08-.07a4.29,4.29,0,0,0,.46-.48l5-6.23H167a2,2,0,0,0-.78.14,1.68,1.68,0,0,0-.61.51l-3.85,4.87a.7.7,0,0,1-.3.24,1.43,1.43,0,0,1-.51.08h-.34V95.88h-3.13v14.48h3.13v-6.13h.55a1.43,1.43,0,0,1,.58.09.85.85,0,0,1,.33.28l3.93,5.12a1.25,1.25,0,0,0,.47.47,1.57,1.57,0,0,0,.82.17h2.83l-5.15-7A3.16,3.16,0,0,0,164.41,102.82Z"/><rect x="196.22" y="95.89" width="3.14" height="14.47"/><polygon points="225.84 98.55 230.06 98.55 230.06 110.36 233.19 110.36 233.19 98.55 237.38 98.55 237.38 95.89 225.84 95.89 225.84 98.55"/><path d="M266.36,99.71a3.75,3.75,0,0,1,1.33-.91,4.95,4.95,0,0,1,3-.16,4.76,4.76,0,0,1,.85.35,4.6,4.6,0,0,1,.56.36,1,1,0,0,0,1.11.09,1.06,1.06,0,0,0,.25-.27l1-1.39-.17-.16a6.5,6.5,0,0,0-2.07-1.37,7.2,7.2,0,0,0-2.82-.52,8.05,8.05,0,0,0-3,.55,6.73,6.73,0,0,0-3.88,3.87,8,8,0,0,0-.54,3,8.84,8.84,0,0,0,.48,3,7,7,0,0,0,1.4,2.34,6.29,6.29,0,0,0,2.21,1.54,7.28,7.28,0,0,0,2.9.55,7.43,7.43,0,0,0,3.08-.58,5.93,5.93,0,0,0,2.19-1.68l.14-.18-1.18-1.28a.77.77,0,0,0-.91-.17,1.1,1.1,0,0,0-.26.18,4.8,4.8,0,0,1-.6.46,2.85,2.85,0,0,1-.64.29,3.82,3.82,0,0,1-.74.18,8.36,8.36,0,0,1-.92,0,3.83,3.83,0,0,1-1.55-.31,3.71,3.71,0,0,1-1.25-.89,4.43,4.43,0,0,1-.85-1.46,5.88,5.88,0,0,1-.31-2,5.66,5.66,0,0,1,.31-2A4.33,4.33,0,0,1,266.36,99.71Z"/><polygon points="309.94 101.88 303.94 101.88 303.94 95.89 300.79 95.89 300.79 110.36 303.94 110.36 303.94 104.27 309.94 104.27 309.94 110.36 313.08 110.36 313.08 95.89 309.94 95.89 309.94 101.88"/><polygon points="340.43 110.36 349.75 110.36 349.75 107.75 343.57 107.75 343.57 104.34 348.44 104.34 348.44 101.81 343.57 101.81 343.57 98.48 349.75 98.48 349.75 95.89 340.43 95.89 340.43 110.36"/><path d="M386,95.89v8.74c0,.13,0,.26,0,.41l-6.78-8.64a2.85,2.85,0,0,0-.22-.24,1.05,1.05,0,0,0-.25-.18,1.23,1.23,0,0,0-.29-.08h-2v14.47h2.82v-9.15l6.75,8.6a1.37,1.37,0,0,0,.49.43,1.48,1.48,0,0,0,.63.12h1.61V95.89Z"/><path d="M116.21,60.76v-9.5a10.54,10.54,0,0,0-2.32-6.37c-.25-.34-.52-.67-.8-1l-.45-.49a28.8,28.8,0,0,0-7.4-5.37l-.77-.4c-1.19-.6-2.45-1.17-3.79-1.71,10.5-6.73,16.35-14.48,14.67-21.06-2.42-9.45-19.64-13.55-41-10.74a2.67,2.67,0,0,0-.07-.85C73.42,0,66.48-1,58.74,1S45.4,7.21,46.23,10.43a2.49,2.49,0,0,0,.35.78C26.46,19,13.32,30.88,15.74,40.34a9.51,9.51,0,0,0,1.33,2.94c-2.37,2.47-3.68,5.16-3.68,8v9.51h-.54C5.75,60.76,0,65.11,0,70.47s5.75,9.71,12.85,9.71h.54V107c0,11.83,23,21.42,51.41,21.42s51.41-9.59,51.41-21.42V80.18c7.09,0,12.85-4.35,12.85-9.71S123.3,60.76,116.21,60.76ZM79.6,63.12a111,111,0,0,1-14.8,1c-12.45,0-24.5-2-33.06-5.61-7.32-3-9.78-6.25-9.78-7.24,0-.48.58-1.47,2-2.71,10,4.45,27.78,4.69,46.9-.2a115.46,115.46,0,0,0,19.51-6.83A58.67,58.67,0,0,1,97.85,44c7.32,3,9.79,6.25,9.79,7.24s-2.36,4-9.26,7l-6.3,12.58a3.42,3.42,0,0,1-5.73.63ZM40.43,95.71a5.9,5.9,0,1,1,5.89-5.9A5.9,5.9,0,0,1,40.43,95.71ZM77,106.84a16.37,16.37,0,0,1-23.1,0,2.68,2.68,0,1,1,3.78-3.79,11,11,0,0,0,15.53,0A2.68,2.68,0,1,1,77,106.84ZM89.16,95.71a5.9,5.9,0,1,1,5.89-5.9A5.9,5.9,0,0,1,89.16,95.71Z" style="fill:#05e07d"/></svg>