<svg width="211" height="57" viewBox="0 0 211 57" fill="none" xmlns="http://www.w3.org/2000/svg">
<g clip-path="url(#clip0)">
<path d="M51.4038 26.9673V22.7327C51.4038 21.7297 51.0708 20.7825 50.4046 19.891C50.2936 19.7239 50.1826 19.6124 50.0716 19.4453C50.016 19.3896 49.9605 19.2781 49.8495 19.2224C49.0168 18.3309 47.9066 17.5509 46.5743 16.8265C46.4633 16.7708 46.3523 16.7151 46.2413 16.6594C45.7416 16.3808 45.131 16.1579 44.5759 15.8793C49.2389 12.8705 51.7924 9.47168 51.0708 6.5186C49.9605 2.39543 42.3554 0.556725 32.8629 1.83825C32.8629 1.72681 32.8629 1.55966 32.8074 1.44822C32.4743 -0.000459804 29.4212 -0.446208 25.9795 0.445288C22.5378 1.33678 20.0952 3.17549 20.4283 4.62417C20.4838 4.73561 20.5393 4.84705 20.5948 4.95848C11.713 8.41303 5.88424 13.7063 6.93896 17.8852C7.04999 18.3309 7.27203 18.7767 7.54959 19.1667C6.49487 20.2811 5.93975 21.4512 5.93975 22.7327V26.9673C5.88424 26.9673 5.77322 26.9673 5.71771 26.9673C2.55354 26.9673 0 28.9174 0 31.2576C0 33.6535 2.55354 35.5479 5.66219 35.5479C5.71771 35.5479 5.82873 35.5479 5.88424 35.5479V47.416C5.88424 52.6535 16.0429 56.9438 28.644 56.9438C41.2452 56.9438 51.4038 52.7092 51.4038 47.416V35.6036C54.568 35.6036 57.066 33.6535 57.066 31.3133C57.066 28.9174 54.5125 26.9673 51.4038 26.9673ZM32.0858 28.3602C30.9755 28.416 29.8098 28.4717 28.644 28.4717C23.1484 28.4717 17.8193 27.5802 14.0445 25.9643C10.8248 24.6271 9.71455 23.1784 9.71455 22.7327C9.71455 22.5098 9.99211 22.0641 10.6027 21.5069C15.0437 23.457 22.8708 23.5685 31.3641 21.3954C34.5283 20.6154 37.4149 19.5567 39.9684 18.3866C41.1897 18.7209 42.2999 19.0553 43.2991 19.501C46.5188 20.8382 47.629 22.2869 47.629 22.7327C47.629 23.1784 46.5188 24.5714 43.2991 25.9643C42.5775 26.2987 41.7448 26.5773 40.9121 26.8001L38.1365 32.372C37.6369 33.3749 36.3047 33.4863 35.583 32.6506L32.0858 28.3602ZM37.1928 42.5127C35.7495 42.5127 34.5838 41.3427 34.5838 39.894C34.5838 38.4453 35.7495 37.2752 37.1928 37.2752C38.6361 37.2752 39.8019 38.4453 39.8019 39.894C39.8019 41.3427 38.6361 42.5127 37.1928 42.5127Z" fill="#47D966"/>
<path d="M38.1366 32.4282L40.9122 26.8563C41.7449 26.5777 42.522 26.2991 43.2992 26.0205C46.5189 24.6833 47.6291 23.2346 47.6291 22.7889C47.6291 22.3431 46.5189 20.9501 43.2992 19.5572C42.3 19.1114 41.1897 18.7771 39.9685 18.4428C37.4149 19.6129 34.4728 20.6716 31.3642 21.4516C22.9264 23.6246 15.0437 23.5132 10.6028 21.563C9.99216 22.1202 9.7146 22.566 9.7146 22.7889C9.7146 23.2346 10.8248 24.6276 14.0445 26.0205C17.8193 27.5806 23.1484 28.5279 28.6441 28.5279C29.8098 28.5279 30.9756 28.4721 32.0858 28.4164L35.5831 32.7625C36.3047 33.5425 37.637 33.3754 38.1366 32.4282Z" fill="white"/>
<path d="M37.1928 42.5132C38.6337 42.5132 39.8018 41.3407 39.8018 39.8944C39.8018 38.4481 38.6337 37.2757 37.1928 37.2757C35.7519 37.2757 34.5837 38.4481 34.5837 39.8944C34.5837 41.3407 35.7519 42.5132 37.1928 42.5132Z" fill="white"/>
<path d="M82.2684 12.2023C81.7132 11.5337 81.0471 10.9765 80.2144 10.6422C79.3817 10.2522 78.3825 10.085 77.2723 10.085C76.051 10.085 75.0518 10.3079 74.2192 10.6979C73.3865 11.1437 72.7203 11.7009 72.1652 12.4809C71.6656 13.2053 71.277 14.0968 71.055 15.0997C70.8329 16.1026 70.7219 17.217 70.7219 18.3871V24.5161C70.7219 25.6862 70.8329 26.8006 71.055 27.8035C71.277 28.8064 71.6656 29.6979 72.1652 30.4223C72.6648 31.2023 73.3865 31.7595 74.2192 32.2053C75.0518 32.651 76.1066 32.8182 77.2723 32.8182C78.4936 32.8182 79.4928 32.5953 80.3254 32.2053C81.1581 31.8152 81.8243 31.2581 82.3794 30.5337C82.879 29.8651 83.2676 29.0293 83.4896 28.1378C83.7117 27.2463 83.8227 26.2991 83.8227 25.2962V24.1261H79.9369V25.2962C79.9369 25.8534 79.8814 26.4106 79.7703 26.912C79.6593 27.4135 79.4928 27.8592 79.3262 28.2493C79.1042 28.6393 78.8266 28.9179 78.4936 29.1408C78.1605 29.3636 77.7719 29.4751 77.2723 29.4751C76.7727 29.4751 76.3841 29.3636 76.051 29.1408C75.718 28.9179 75.4404 28.5836 75.2184 28.2493C74.9963 27.8592 74.8298 27.4135 74.7743 26.912C74.6633 26.4106 74.6077 25.8534 74.6077 25.2962V17.607C74.6077 16.8827 74.6633 16.2141 74.7743 15.6569C74.8853 15.1554 74.9963 14.7097 75.2184 14.3754C75.4404 14.041 75.6625 13.8182 75.9955 13.651C76.3286 13.4839 76.7727 13.4281 77.2723 13.4281C77.7719 13.4281 78.216 13.4839 78.5491 13.651C78.8821 13.8182 79.1042 14.041 79.3262 14.3754C79.5483 14.7097 79.7148 15.1554 79.7703 15.6569C79.8814 16.2141 79.9369 16.8827 79.9369 17.607V17.9971H83.8227V17.607C83.8227 16.5484 83.7117 15.4897 83.4896 14.5982C83.1565 13.7067 82.768 12.871 82.2684 12.2023Z" fill="black"/>
<path d="M94.5365 21.6745C94.9806 21.4516 95.3137 21.173 95.6467 20.8387C95.8133 20.6158 96.0353 20.393 96.2019 20.1144C96.3684 19.8358 96.5349 19.5015 96.646 19.1672C96.757 18.8328 96.868 18.3871 96.979 17.9413C97.0345 17.4956 97.09 16.9941 97.09 16.4369C97.09 15.5455 96.979 14.7097 96.757 13.9853C96.5349 13.2053 96.0908 12.5367 95.5357 11.9795C94.9806 11.4223 94.2034 11.0323 93.2597 10.6979C92.316 10.4194 91.2058 10.2522 89.818 10.2522H85.5991V32.5396H89.4849V22.6217H91.0948L94.3145 32.5953H98.0893L94.5365 21.6745ZM89.4849 13.4282H89.818C90.3731 13.4282 90.8727 13.4839 91.3168 13.5953C91.7054 13.7067 92.094 13.8739 92.3715 14.0968C92.6491 14.3196 92.8712 14.5982 93.0377 14.9883C93.2042 15.3783 93.2597 15.8798 93.2597 16.4927C93.2597 17.1056 93.2042 17.607 93.0377 17.9971C92.8712 18.3871 92.6491 18.6657 92.3715 18.8886C92.094 19.1114 91.7609 19.2786 91.3168 19.39C90.8727 19.5015 90.3731 19.5572 89.818 19.5572H89.4849V13.4282Z" fill="black"/>
<path d="M103.196 10.3079L98.5332 32.5953H102.419L103.474 27.2463H106.804L107.97 32.5953H111.745L106.971 10.3079H103.196ZM106.194 24.1261H104.084L105.139 17.8299L106.194 24.1261Z" fill="black"/>
<path d="M124.291 12.2023C123.736 11.5337 123.07 10.9765 122.237 10.6422C121.404 10.2522 120.405 10.085 119.295 10.085C118.074 10.085 117.074 10.3079 116.242 10.6979C115.409 11.1437 114.743 11.7009 114.188 12.4809C113.688 13.2053 113.299 14.0968 113.077 15.0997C112.855 16.1026 112.744 17.217 112.744 18.3871V24.5161C112.744 25.6862 112.855 26.8006 113.077 27.8035C113.299 28.8064 113.688 29.6979 114.188 30.4223C114.687 31.2023 115.409 31.7595 116.242 32.2053C117.074 32.651 118.129 32.8182 119.295 32.8182C120.516 32.8182 121.515 32.5953 122.348 32.2053C123.181 31.8152 123.847 31.2581 124.402 30.5337C124.901 29.8651 125.29 29.0293 125.512 28.1378C125.734 27.2463 125.845 26.2991 125.845 25.2962V24.1261H121.959V25.2962C121.959 25.8534 121.904 26.4106 121.793 26.912C121.682 27.4135 121.515 27.8592 121.349 28.2493C121.127 28.6393 120.849 28.9179 120.516 29.1408C120.183 29.3636 119.794 29.4751 119.295 29.4751C118.795 29.4751 118.407 29.3636 118.074 29.1408C117.74 28.9179 117.463 28.5836 117.241 28.2493C117.019 27.8592 116.852 27.4135 116.797 26.912C116.686 26.4106 116.63 25.8534 116.63 25.2962V17.607C116.63 16.8827 116.686 16.2141 116.797 15.6569C116.908 15.1554 117.019 14.7097 117.241 14.3754C117.463 14.041 117.685 13.8182 118.018 13.651C118.351 13.4839 118.795 13.4281 119.295 13.4281C119.794 13.4281 120.238 13.4839 120.572 13.651C120.905 13.8182 121.127 14.041 121.349 14.3754C121.571 14.7097 121.737 15.1554 121.793 15.6569C121.904 16.2141 121.959 16.8827 121.959 17.607V17.9971H125.845V17.607C125.845 16.5484 125.734 15.4897 125.512 14.5982C125.235 13.7067 124.846 12.871 124.291 12.2023Z" fill="black"/>
<path d="M140.944 32.5953L135.393 19.1671L140.278 10.3079H135.504L131.563 18.2199V10.3079H127.677V32.5953H131.563V25.4076L132.618 23.2346L136.226 32.5953H140.944Z" fill="black"/>
<path d="M142.221 32.5953H151.436V29.4751H146.107V22.6217H149.937V19.5015H146.107V13.4281H151.436V10.3079H142.221V32.5953Z" fill="black"/>
<path d="M162.982 11.7566C162.483 11.1994 161.761 10.8651 160.928 10.6422C160.096 10.4193 159.097 10.3079 157.931 10.3079H152.935V32.5953H157.931C159.152 32.5953 160.151 32.4281 160.984 32.1496C161.817 31.8152 162.538 31.3695 163.038 30.7566C163.538 30.1437 163.926 29.3636 164.148 28.4164C164.37 27.5249 164.481 26.4663 164.481 25.2962V16.8827C164.481 15.7126 164.37 14.7097 164.148 13.8739C163.871 12.9824 163.538 12.3138 162.982 11.7566ZM159.485 29.2522C159.152 29.4193 158.597 29.5308 157.875 29.5308H156.765V13.4281H157.82C158.541 13.4281 159.097 13.5396 159.43 13.7067C159.763 13.8739 159.985 14.0968 160.151 14.3754C160.318 14.7097 160.429 15.1554 160.429 15.6569C160.484 16.2141 160.484 16.8827 160.484 17.6627V24.5161C160.484 25.4633 160.484 26.2991 160.429 26.9677C160.373 27.5806 160.318 28.0821 160.151 28.4721C160.096 28.8622 159.818 29.085 159.485 29.2522Z" fill="black"/>
<path d="M182.578 21.2844C183.078 20.8387 183.522 20.2258 183.799 19.4457C184.077 18.7214 184.243 17.8299 184.243 16.827C184.243 15.824 184.132 14.9325 183.91 14.1525C183.688 13.3167 183.355 12.6481 182.911 12.0909C182.467 11.5337 181.801 11.088 181.079 10.7537C180.358 10.4751 179.469 10.3079 178.47 10.3079H172.697V32.5953H176.583V22.6217H178.47C179.247 22.6217 180.025 22.5103 180.691 22.2874C181.412 22.1202 182.078 21.7859 182.578 21.2844ZM176.583 13.4281H176.916C177.804 13.4281 178.526 13.5396 178.97 13.7067C179.414 13.8739 179.747 14.0968 179.914 14.3196C180.136 14.5982 180.247 14.9325 180.247 15.3226C180.302 15.7683 180.302 16.3255 180.302 16.8827C180.302 17.4399 180.247 17.8856 180.136 18.2199C180.025 18.5542 179.914 18.7771 179.691 18.9443C179.469 19.1671 179.136 19.2786 178.692 19.39C178.248 19.5015 177.638 19.5572 176.916 19.5572H176.583V13.4281Z" fill="black"/>
<path d="M197.011 12.3695C196.511 11.6452 195.845 11.088 194.957 10.6979C194.124 10.3079 193.07 10.085 191.848 10.085C191.016 10.085 190.294 10.1965 189.628 10.3636C188.962 10.5308 188.407 10.8094 187.907 11.1437C187.407 11.478 187.019 11.868 186.686 12.3695C186.353 12.8152 186.075 13.3724 185.909 13.9296C185.687 14.4868 185.576 15.0997 185.465 15.7126C185.409 16.3255 185.354 16.9941 185.354 17.607V25.2962C185.354 25.9648 185.409 26.5777 185.465 27.1906C185.52 27.8035 185.687 28.4164 185.909 28.9736C186.131 29.5308 186.353 30.0323 186.686 30.5337C187.019 31.0352 187.463 31.4252 187.907 31.7595C188.407 32.0938 188.962 32.3724 189.628 32.5396C190.294 32.7067 191.016 32.8182 191.848 32.8182C193.07 32.8182 194.124 32.5953 194.957 32.2053C195.79 31.8152 196.456 31.2023 197.011 30.5337C197.511 29.8651 197.899 29.0293 198.066 28.1378C198.288 27.2463 198.399 26.2991 198.399 25.2962V17.607C198.399 16.6041 198.288 15.6569 198.066 14.7654C197.899 13.8739 197.511 13.0938 197.011 12.3695ZM193.125 29.2522C192.792 29.4194 192.348 29.4751 191.848 29.4751C191.349 29.4751 190.905 29.4194 190.572 29.2522C190.239 29.085 189.961 28.8622 189.794 28.5836C189.572 28.305 189.461 27.915 189.35 27.5249C189.239 27.0792 189.184 26.5777 189.184 26.0205V16.8827C189.184 16.3255 189.239 15.824 189.35 15.3783C189.461 14.9883 189.572 14.5982 189.794 14.3196C190.016 14.041 190.239 13.8182 190.572 13.651C190.905 13.4839 191.349 13.4281 191.848 13.4281C192.348 13.4281 192.792 13.4839 193.125 13.651C193.458 13.8182 193.736 14.041 193.902 14.3196C194.124 14.5982 194.235 14.9883 194.346 15.3783C194.457 15.824 194.513 16.3255 194.513 16.8827V26.0762C194.513 26.6334 194.457 27.1349 194.346 27.5806C194.235 27.9707 194.124 28.3607 193.902 28.6393C193.736 28.9179 193.458 29.085 193.125 29.2522Z" fill="black"/>
<path d="M199.509 10.3079V13.651H203.339V32.5953H207.17V13.651H211V10.3079H199.509Z" fill="black"/>
<path d="M78.4936 44.7419C78.4381 44.6862 78.4381 44.6862 78.3826 44.6305C78.3826 44.6305 78.4381 44.6305 78.4381 44.5748C78.4936 44.5191 78.6046 44.4076 78.7156 44.2962L81.6022 40.6745H79.9924C79.8259 40.6745 79.6593 40.6745 79.5483 40.7302C79.4373 40.7859 79.3263 40.8974 79.2152 41.0088L76.9948 43.7947C76.9392 43.8504 76.8837 43.9062 76.8282 43.9062C76.7727 43.9619 76.6617 43.9619 76.5507 43.9619H76.3286V40.563H74.5522V48.9208H76.3286V45.3548H76.6617C76.8282 45.3548 76.9392 45.3548 76.9948 45.4106C77.0503 45.4663 77.1058 45.522 77.1613 45.5777L79.4373 48.5308C79.4928 48.6422 79.6038 48.7537 79.7148 48.8094C79.8259 48.8651 79.9924 48.9208 80.2144 48.9208H81.8243L78.8822 44.9091C78.7156 44.9648 78.6046 44.8534 78.4936 44.7419Z" fill="black"/>
<path d="M98.6444 40.7302H96.8125V49.088H98.6444V40.7302Z" fill="black"/>
<path d="M113.854 42.2903H116.241V49.088H118.073V42.2903H120.46V40.7302H113.854V42.2903Z" fill="black"/>
<path d="M137.169 42.9589C137.391 42.7361 137.613 42.5689 137.947 42.4575C138.224 42.346 138.557 42.2903 138.946 42.2903C139.223 42.2903 139.501 42.346 139.667 42.4017C139.889 42.4575 140.056 42.5132 140.167 42.6246C140.278 42.6803 140.389 42.7918 140.5 42.8475C140.722 43.0147 141 43.0147 141.111 42.9032C141.166 42.8475 141.222 42.7918 141.277 42.7361L141.832 41.956L141.721 41.8446C141.388 41.5103 141 41.2317 140.556 41.0645C140.112 40.8416 139.556 40.7859 138.946 40.7859C138.335 40.7859 137.725 40.8974 137.225 41.1202C136.725 41.3431 136.226 41.6217 135.893 42.0117C135.504 42.4017 135.226 42.8475 135.004 43.349C134.782 43.8504 134.671 44.4633 134.671 45.0762C134.671 45.6891 134.782 46.2463 134.949 46.8035C135.115 47.305 135.393 47.8064 135.782 48.1407C136.17 48.4751 136.559 48.8094 137.058 49.0322C137.558 49.2551 138.113 49.3666 138.724 49.3666C139.39 49.3666 140 49.2551 140.5 49.0322C141 48.8094 141.444 48.4751 141.777 48.085L141.888 47.9736L141.222 47.2493C141.055 47.0821 140.889 47.0821 140.722 47.1378C140.667 47.1378 140.611 47.1935 140.556 47.2493C140.445 47.3607 140.334 47.4164 140.223 47.5278C140.112 47.5836 140 47.6393 139.834 47.695C139.723 47.7507 139.556 47.7507 139.39 47.8064C139.223 47.8064 139.057 47.8622 138.835 47.8622C138.502 47.8622 138.224 47.8064 137.947 47.695C137.669 47.5836 137.447 47.4164 137.225 47.1935C137.003 46.9707 136.836 46.6921 136.725 46.3578C136.614 46.0234 136.559 45.6334 136.559 45.1877C136.559 44.7976 136.614 44.4076 136.725 44.0733C136.781 43.4604 136.947 43.1818 137.169 42.9589Z" fill="black"/>
<path d="M162.205 44.1847H158.764V40.7302H156.932V49.088H158.764V45.5777H162.205V49.088H164.037V40.7302H162.205V44.1847Z" fill="black"/>
<path d="M179.747 49.088H185.131V47.5836H181.579V45.6334H184.354V44.1847H181.579V42.2346H185.131V40.7302H179.747V49.088Z" fill="black"/>
<path d="M206.004 45.8006C206.004 45.8563 206.004 45.9677 206.004 46.0234L202.118 41.0088C202.063 40.9531 202.007 40.8973 202.007 40.8416C201.952 40.7859 201.896 40.7859 201.841 40.7302C201.785 40.7302 201.729 40.6745 201.674 40.6745C201.618 40.6745 201.563 40.6745 201.507 40.6745H200.564V49.0322H202.174V44.0176C202.174 43.9619 202.174 43.9061 202.174 43.8504L206.059 48.8094C206.17 48.9208 206.226 49.0322 206.337 49.0322C206.448 49.088 206.559 49.088 206.67 49.088H207.614V40.7302H206.004V45.8006Z" fill="black"/>
</g>
<defs>
<clipPath id="clip0">
<rect width="211" height="57" fill="white"/>
</clipPath>
</defs>
</svg>
