<svg width="282" height="76" viewBox="0 0 282 76" fill="none" xmlns="http://www.w3.org/2000/svg">
<g clip-path="url(#clip0)">
<path d="M68.7009 35.957V30.3108C68.7009 28.9736 68.2557 27.7107 67.3654 26.522C67.217 26.2991 67.0687 26.1505 66.9203 25.9277C66.8461 25.8534 66.7719 25.7048 66.6235 25.6305C65.5107 24.4418 64.0268 23.4018 62.2463 22.436C62.0979 22.3617 61.9495 22.2874 61.8011 22.2131C61.1334 21.8416 60.3173 21.5445 59.5754 21.173C65.8074 17.1613 69.2202 12.6295 68.2557 8.69208C66.7719 3.19452 56.6077 0.74291 43.9211 2.45161C43.9211 2.30303 43.9211 2.08015 43.8469 1.93157C43.4017 -2.71946e-06 39.3212 -0.594333 34.7214 0.594328C30.1215 1.78299 26.8571 4.2346 27.3023 6.16618C27.3765 6.31476 27.4507 6.46334 27.5249 6.61192C15.6543 11.218 7.86425 18.2757 9.27388 23.8475C9.42226 24.4418 9.71902 25.0362 10.09 25.5562C8.68035 27.042 7.93844 28.6021 7.93844 30.3108V35.957C7.86425 35.957 7.71586 35.957 7.64167 35.957C3.41279 35.957 0 38.5572 0 41.6774C0 44.8719 3.41279 47.3978 7.56748 47.3978C7.64167 47.3978 7.79006 47.3978 7.86425 47.3978V63.2219C7.86425 70.2053 21.4412 75.9257 38.2826 75.9257C55.1239 75.9257 68.7009 70.2796 68.7009 63.2219V47.4721C72.9298 47.4721 76.2684 44.8719 76.2684 41.7517C76.2684 38.5572 72.8556 35.957 68.7009 35.957ZM42.8824 37.8143C41.3986 37.8886 39.8406 37.9628 38.2826 37.9628C30.9376 37.9628 23.8153 36.7742 18.7703 34.6197C14.4672 32.8368 12.9834 30.9052 12.9834 30.3108C12.9834 30.0137 13.3544 29.4194 14.1705 28.6764C20.1058 31.2766 30.5667 31.4252 41.9179 28.5279C46.1468 27.4878 50.0047 26.0762 53.4175 24.5161C55.0497 24.9619 56.5335 25.4076 57.869 26.002C62.1721 27.7849 63.6559 29.7165 63.6559 30.3108C63.6559 30.9052 62.1721 32.7625 57.869 34.6197C56.9045 35.0655 55.7916 35.4369 54.6788 35.7341L50.9692 43.1632C50.3015 44.5005 48.5209 44.6491 47.5564 43.5347L42.8824 37.8143ZM49.708 56.6843C47.779 56.6843 46.221 55.1241 46.221 53.1926C46.221 51.261 47.779 49.7009 49.708 49.7009C51.6369 49.7009 53.1949 51.261 53.1949 53.1926C53.1949 55.1241 51.6369 56.6843 49.708 56.6843Z" fill="#5ED6A0"/>
<path d="M50.9692 43.2375L54.6787 35.8084C55.7916 35.437 56.8303 35.0655 57.869 34.694C62.172 32.9111 63.6559 30.9795 63.6559 30.3851C63.6559 29.7908 62.172 27.9335 57.869 26.0762C56.5335 25.4819 55.0497 25.0362 53.4175 24.5904C50.0047 26.1505 46.0726 27.5621 41.9179 28.6022C30.6409 31.4995 20.1057 31.3509 14.1705 28.7507C13.3544 29.4937 12.9834 30.088 12.9834 30.3851C12.9834 30.9795 14.4672 32.8368 18.7703 34.694C23.8153 36.7742 30.9376 38.0372 38.2825 38.0372C39.8405 38.0372 41.3986 37.9629 42.8824 37.8886L47.5564 43.6833C48.5209 44.7234 50.3015 44.5005 50.9692 43.2375Z" fill="white"/>
<path d="M49.7079 56.6843C51.6337 56.6843 53.1949 55.121 53.1949 53.1926C53.1949 51.2642 51.6337 49.7009 49.7079 49.7009C47.7821 49.7009 46.2209 51.2642 46.2209 53.1926C46.2209 55.121 47.7821 56.6843 49.7079 56.6843Z" fill="white"/>
<path d="M109.951 16.2698C109.209 15.3783 108.319 14.6354 107.206 14.1896C106.093 13.6696 104.758 13.4467 103.274 13.4467C101.642 13.4467 100.306 13.7439 99.1933 14.2639C98.0805 14.8583 97.1902 15.6012 96.4483 16.6412C95.7805 17.607 95.2612 18.7957 94.9644 20.1329C94.6677 21.4702 94.5193 22.956 94.5193 24.5161V32.6882C94.5193 34.2483 94.6677 35.7341 94.9644 37.0714C95.2612 38.4086 95.7805 39.5973 96.4483 40.563C97.116 41.6031 98.0805 42.346 99.1933 42.9404C100.306 43.5347 101.716 43.7576 103.274 43.7576C104.906 43.7576 106.241 43.4604 107.354 42.9404C108.467 42.4203 109.357 41.6774 110.099 40.7116C110.767 39.8201 111.286 38.7058 111.583 37.5171C111.88 36.3284 112.028 35.0655 112.028 33.7282V32.1681H106.835V33.7282C106.835 34.4712 106.761 35.2141 106.612 35.8827C106.464 36.5513 106.241 37.1456 106.019 37.6657C105.722 38.1857 105.351 38.5572 104.906 38.8543C104.461 39.1515 103.942 39.3001 103.274 39.3001C102.606 39.3001 102.087 39.1515 101.642 38.8543C101.196 38.5572 100.826 38.1114 100.529 37.6657C100.232 37.1456 100.009 36.5513 99.9352 35.8827C99.7868 35.2141 99.7127 34.4712 99.7127 33.7282V23.476C99.7127 22.5103 99.7868 21.6188 99.9352 20.8758C100.084 20.2072 100.232 19.6129 100.529 19.1671C100.826 18.7214 101.122 18.4242 101.567 18.2014C102.013 17.9785 102.606 17.9042 103.274 17.9042C103.942 17.9042 104.535 17.9785 104.98 18.2014C105.425 18.4242 105.722 18.7214 106.019 19.1671C106.316 19.6129 106.538 20.2072 106.612 20.8758C106.761 21.6188 106.835 22.5103 106.835 23.476V23.9961H112.028V23.476C112.028 22.0645 111.88 20.653 111.583 19.4643C111.138 18.2757 110.619 17.1613 109.951 16.2698Z" fill="black"/>
<path d="M126.347 28.8993C126.941 28.6021 127.386 28.2307 127.831 27.7849C128.054 27.4878 128.35 27.1906 128.573 26.8191C128.796 26.4477 129.018 26.0019 129.166 25.5562C129.315 25.1104 129.463 24.5161 129.612 23.9218C129.686 23.3275 129.76 22.6588 129.76 21.9159C129.76 20.7273 129.612 19.6129 129.315 18.6471C129.018 17.607 128.425 16.7155 127.683 15.9726C126.941 15.2297 125.902 14.7097 124.641 14.2639C123.38 13.8925 121.896 13.6696 120.041 13.6696H114.402V43.3861H119.596V30.1623H121.747L126.05 43.4604H131.095L126.347 28.8993ZM119.596 17.9042H120.041C120.783 17.9042 121.451 17.9785 122.044 18.1271C122.563 18.2756 123.083 18.4985 123.454 18.7957C123.825 19.0929 124.121 19.4643 124.344 19.9843C124.567 20.5044 124.641 21.173 124.641 21.9902C124.641 22.8074 124.567 23.476 124.344 23.9961C124.121 24.5161 123.825 24.8876 123.454 25.1847C123.083 25.4819 122.638 25.7048 122.044 25.8534C121.451 26.0019 120.783 26.0762 120.041 26.0762H119.596V17.9042Z" fill="black"/>
<path d="M137.921 13.7439L131.689 43.4604H136.882L138.292 36.3284H142.743L144.301 43.4604H149.346L142.966 13.7439H137.921ZM141.927 32.1681H139.108L140.518 23.7732L141.927 32.1681Z" fill="black"/>
<path d="M166.114 16.2698C165.372 15.3783 164.481 14.6354 163.369 14.1896C162.256 13.6696 160.92 13.4467 159.436 13.4467C157.804 13.4467 156.469 13.7439 155.356 14.2639C154.243 14.8583 153.353 15.6012 152.611 16.6412C151.943 17.607 151.424 18.7957 151.127 20.1329C150.83 21.4702 150.682 22.956 150.682 24.5161V32.6882C150.682 34.2483 150.83 35.7341 151.127 37.0714C151.424 38.4086 151.943 39.5973 152.611 40.563C153.279 41.6031 154.243 42.346 155.356 42.9404C156.469 43.5347 157.878 43.7576 159.436 43.7576C161.069 43.7576 162.404 43.4604 163.517 42.9404C164.63 42.4203 165.52 41.6774 166.262 40.7116C166.93 39.8201 167.449 38.7058 167.746 37.5171C168.043 36.3284 168.191 35.0655 168.191 33.7282V32.1681H162.998V33.7282C162.998 34.4712 162.923 35.2141 162.775 35.8827C162.627 36.5513 162.404 37.1456 162.181 37.6657C161.885 38.1857 161.514 38.5572 161.069 38.8543C160.623 39.1515 160.104 39.3001 159.436 39.3001C158.769 39.3001 158.249 39.1515 157.804 38.8543C157.359 38.5572 156.988 38.1114 156.691 37.6657C156.395 37.1456 156.172 36.5513 156.098 35.8827C155.949 35.2141 155.875 34.4712 155.875 33.7282V23.476C155.875 22.5103 155.949 21.6188 156.098 20.8758C156.246 20.2072 156.395 19.6129 156.691 19.1671C156.988 18.7214 157.285 18.4242 157.73 18.2014C158.175 17.9785 158.769 17.9042 159.436 17.9042C160.104 17.9042 160.698 17.9785 161.143 18.2014C161.588 18.4242 161.885 18.7214 162.181 19.1671C162.478 19.6129 162.701 20.2072 162.775 20.8758C162.923 21.6188 162.998 22.5103 162.998 23.476V23.9961H168.191V23.476C168.191 22.0645 168.043 20.653 167.746 19.4643C167.375 18.2757 166.856 17.1613 166.114 16.2698Z" fill="black"/>
<path d="M188.371 43.4604L180.952 25.5562L187.481 13.7439H181.1L175.833 24.2932V13.7439H170.639V43.4604H175.833V33.8768L177.242 30.9795L182.065 43.4604H188.371Z" fill="black"/>
<path d="M190.077 43.4604H202.393V39.3001H195.271V30.1623H200.39V26.0019H195.271V17.9042H202.393V13.7439H190.077V43.4604Z" fill="black"/>
<path d="M217.825 15.6755C217.157 14.9325 216.192 14.4868 215.08 14.1896C213.967 13.8925 212.631 13.7439 211.073 13.7439H204.396V43.4604H211.073C212.706 43.4604 214.041 43.2375 215.154 42.8661C216.267 42.4203 217.231 41.826 217.899 41.0088C218.567 40.1916 219.086 39.1515 219.383 37.8886C219.679 36.6999 219.828 35.2884 219.828 33.7282V22.5103C219.828 20.9501 219.679 19.6129 219.383 18.4985C219.012 17.3099 218.567 16.4184 217.825 15.6755ZM213.151 39.0029C212.706 39.2258 211.964 39.3744 210.999 39.3744H209.515V17.9042H210.925C211.889 17.9042 212.631 18.0528 213.076 18.2757C213.522 18.4985 213.818 18.7957 214.041 19.1671C214.264 19.6129 214.412 20.2072 214.412 20.8758C214.486 21.6188 214.486 22.5103 214.486 23.5503V32.6882C214.486 33.9511 214.486 35.0655 214.412 35.957C214.338 36.7742 214.264 37.4428 214.041 37.9628C213.967 38.4829 213.596 38.7801 213.151 39.0029Z" fill="black"/>
<path d="M244.014 28.3793C244.682 27.7849 245.275 26.9677 245.646 25.9277C246.017 24.9619 246.24 23.7732 246.24 22.436C246.24 21.0987 246.091 19.9101 245.795 18.87C245.498 17.7556 245.053 16.8641 244.459 16.1212C243.866 15.3783 242.975 14.784 242.011 14.3382C241.046 13.9668 239.859 13.7439 238.524 13.7439H230.808V43.4604H236.001V30.1623H238.524C239.563 30.1623 240.601 30.0137 241.492 29.7165C242.456 29.4936 243.346 29.0479 244.014 28.3793ZM236.001 17.9042H236.447C237.634 17.9042 238.598 18.0528 239.192 18.2757C239.785 18.4985 240.23 18.7957 240.453 19.0929C240.75 19.4643 240.898 19.9101 240.898 20.4301C240.972 21.0244 240.972 21.7673 240.972 22.5103C240.972 23.2532 240.898 23.8475 240.75 24.2932C240.601 24.739 240.453 25.0362 240.156 25.259C239.859 25.5562 239.414 25.7048 238.821 25.8534C238.227 26.0019 237.411 26.0762 236.447 26.0762H236.001V17.9042Z" fill="black"/>
<path d="M263.304 16.4927C262.636 15.5269 261.746 14.784 260.559 14.2639C259.446 13.7439 258.036 13.4467 256.404 13.4467C255.291 13.4467 254.327 13.5953 253.436 13.8182C252.546 14.041 251.804 14.4125 251.137 14.8583C250.469 15.304 249.949 15.824 249.504 16.4927C249.059 17.087 248.688 17.8299 248.466 18.5728C248.169 19.3157 248.021 20.1329 247.872 20.9501C247.798 21.7673 247.724 22.6588 247.724 23.476V33.7282C247.724 34.6197 247.798 35.4369 247.872 36.2541C247.946 37.0713 248.169 37.8886 248.466 38.6315C248.762 39.3744 249.059 40.043 249.504 40.7116C249.949 41.3802 250.543 41.9003 251.137 42.346C251.804 42.7918 252.546 43.1632 253.436 43.3861C254.327 43.609 255.291 43.7576 256.404 43.7576C258.036 43.7576 259.446 43.4604 260.559 42.9404C261.672 42.4203 262.562 41.6031 263.304 40.7116C263.972 39.8201 264.491 38.7058 264.713 37.5171C265.01 36.3284 265.159 35.0655 265.159 33.7282V23.476C265.159 22.1388 265.01 20.8758 264.713 19.6872C264.491 18.4985 263.972 17.4584 263.304 16.4927ZM258.11 39.0029C257.665 39.2258 257.072 39.3001 256.404 39.3001C255.736 39.3001 255.143 39.2258 254.698 39.0029C254.253 38.7801 253.882 38.4829 253.659 38.1114C253.362 37.74 253.214 37.2199 253.066 36.6999C252.917 36.1056 252.843 35.4369 252.843 34.694V22.5103C252.843 21.7673 252.917 21.0987 253.066 20.5044C253.214 19.9844 253.362 19.4643 253.659 19.0929C253.956 18.7214 254.253 18.4242 254.698 18.2014C255.143 17.9785 255.736 17.9042 256.404 17.9042C257.072 17.9042 257.665 17.9785 258.11 18.2014C258.556 18.4242 258.927 18.7214 259.149 19.0929C259.446 19.4643 259.594 19.9844 259.743 20.5044C259.891 21.0987 259.965 21.7673 259.965 22.5103V34.7683C259.965 35.5112 259.891 36.1799 259.743 36.7742C259.594 37.2942 259.446 37.8143 259.149 38.1857C258.927 38.5572 258.556 38.7801 258.11 39.0029Z" fill="black"/>
<path d="M266.642 13.7439V18.2014H271.762V43.4604H276.881V18.2014H282V13.7439H266.642Z" fill="black"/>
<path d="M104.906 59.6559C104.832 59.5816 104.832 59.5816 104.758 59.5073C104.758 59.5073 104.832 59.5073 104.832 59.433C104.906 59.3587 105.054 59.2102 105.203 59.0616L109.061 54.2326H106.909C106.687 54.2326 106.464 54.2326 106.316 54.3069C106.167 54.3812 106.019 54.5298 105.87 54.6784L102.903 58.393C102.829 58.4672 102.754 58.5415 102.68 58.5415C102.606 58.6158 102.458 58.6158 102.309 58.6158H102.013V54.0841H99.6384V65.2278H102.013V60.4731H102.458C102.68 60.4731 102.829 60.4731 102.903 60.5474C102.977 60.6217 103.051 60.696 103.125 60.7703L106.167 64.7077C106.241 64.8563 106.39 65.0049 106.538 65.0792C106.687 65.1535 106.909 65.2278 107.206 65.2278H109.357L105.425 59.8788C105.203 59.9531 105.054 59.8045 104.906 59.6559Z" fill="black"/>
<path d="M131.837 54.3069H129.389V65.4506H131.837V54.3069Z" fill="black"/>
<path d="M152.166 56.3871H155.356V65.4506H157.804V56.3871H160.994V54.3069H152.166V56.3871Z" fill="black"/>
<path d="M183.326 57.2786C183.623 56.9814 183.919 56.7585 184.365 56.61C184.736 56.4614 185.181 56.3871 185.7 56.3871C186.071 56.3871 186.442 56.4614 186.664 56.5357C186.961 56.61 187.184 56.6842 187.332 56.8328C187.481 56.9071 187.629 57.0557 187.777 57.13C188.074 57.3529 188.445 57.3529 188.593 57.2043C188.668 57.13 188.742 57.0557 188.816 56.9814L189.558 55.9413L189.41 55.7928C188.964 55.347 188.445 54.9755 187.852 54.7527C187.258 54.4555 186.516 54.3812 185.7 54.3812C184.884 54.3812 184.068 54.5298 183.4 54.827C182.732 55.1241 182.065 55.4956 181.62 56.0156C181.1 56.5357 180.729 57.13 180.432 57.7986C180.136 58.4672 179.987 59.2844 179.987 60.1016C179.987 60.9189 180.136 61.6618 180.358 62.4047C180.581 63.0733 180.952 63.7419 181.471 64.1877C181.99 64.6334 182.51 65.0792 183.178 65.3763C183.845 65.6735 184.587 65.8221 185.403 65.8221C186.294 65.8221 187.11 65.6735 187.777 65.3763C188.445 65.0792 189.039 64.6334 189.484 64.1134L189.632 63.9648L188.742 62.999C188.519 62.7761 188.297 62.7761 188.074 62.8504C188 62.8504 187.926 62.9247 187.852 62.999C187.703 63.1476 187.555 63.2219 187.406 63.3705C187.258 63.4448 187.11 63.519 186.887 63.5933C186.739 63.6676 186.516 63.6676 186.294 63.7419C186.071 63.7419 185.848 63.8162 185.552 63.8162C185.106 63.8162 184.736 63.7419 184.365 63.5933C183.994 63.4448 183.697 63.2219 183.4 62.9247C183.103 62.6275 182.881 62.2561 182.732 61.8103C182.584 61.3646 182.51 60.8446 182.51 60.2502C182.51 59.7302 182.584 59.2102 182.732 58.7644C182.807 57.9472 183.029 57.5757 183.326 57.2786Z" fill="black"/>
<path d="M216.786 58.913H212.186V54.3069H209.738V65.4506H212.186V60.7703H216.786V65.4506H219.234V54.3069H216.786V58.913Z" fill="black"/>
<path d="M240.23 65.4506H247.427V63.4448H242.679V60.8446H246.388V58.913H242.679V56.3128H247.427V54.3069H240.23V65.4506Z" fill="black"/>
<path d="M275.323 61.0674C275.323 61.1417 275.323 61.2903 275.323 61.3646L270.129 54.6784C270.055 54.6041 269.981 54.5298 269.981 54.4555C269.907 54.3812 269.833 54.3812 269.758 54.3069C269.684 54.3069 269.61 54.2326 269.536 54.2326C269.462 54.2326 269.387 54.2326 269.313 54.2326H268.052V65.3763H270.204V58.6901C270.204 58.6158 270.204 58.5415 270.204 58.4672L275.397 65.0792C275.545 65.2277 275.62 65.3763 275.768 65.3763C275.916 65.4506 276.065 65.4506 276.213 65.4506H277.474V54.3069H275.323V61.0674Z" fill="black"/>
</g>
<defs>
<clipPath id="clip0">
<rect width="282" height="76" fill="white"/>
</clipPath>
</defs>
</svg>
