<svg width="24" height="24" viewBox="0 0 24 24" fill="none" xmlns="http://www.w3.org/2000/svg">
<circle cx="12" cy="12" r="9" fill="white"/>
<path d="M12 1C5.92525 1 1 5.92525 1 12C1 18.0748 5.92525 23 12 23C18.0748 23 23 18.0748 23 12C23 5.92525 18.0748 1 12 1ZM16.0709 16.4843C14.1441 16.6163 9.85225 16.6163 7.92817 16.4843C5.84183 16.3413 5.59892 15.3202 5.58333 12C5.59892 8.67342 5.84458 7.65867 7.92817 7.51567C9.85225 7.38367 14.145 7.38367 16.0709 7.51567C18.1582 7.65867 18.4002 8.67983 18.4167 12C18.4002 15.3266 18.1554 16.3413 16.0709 16.4843ZM10.1667 9.85317L14.6739 11.9963L10.1667 14.1468V9.85317V9.85317Z" fill="#3993FD"/>
</svg>
